<svg width="55" height="55" viewBox="0 0 55 55" fill="none" xmlns="http://www.w3.org/2000/svg">
<rect width="55" height="55" fill="#448B00"/>
<path d="M27.5 13C21.3883 13 14.8125 14.8424 14.8125 18.8906V36.1094C14.8125 40.1558 21.3883 42 27.5 42C33.6108 42 40.1875 40.1558 40.1875 36.1094V18.8906C40.1875 14.8424 33.6099 13 27.5 13ZM38.375 36.1094C38.375 38.3605 33.5057 40.1875 27.5 40.1875C21.4934 40.1875 16.625 38.3605 16.625 36.1094V32.7236C18.4973 34.653 23.0141 35.6562 27.5 35.6562C31.9859 35.6562 36.5027 34.653 38.375 32.7236V36.1094ZM38.375 30.6719H38.3714C38.3714 30.6809 38.375 30.6909 38.375 30.7C38.375 32.9375 33.5057 34.75 27.5 34.75C21.4943 34.75 16.625 32.9375 16.625 30.7C16.625 30.6909 16.6286 30.6809 16.6286 30.6719H16.625V27.2861C18.4973 29.2155 23.0141 30.2188 27.5 30.2188C31.9859 30.2188 36.5027 29.2155 38.375 27.2861V30.6719ZM38.375 25.2344H38.3714C38.3714 25.2434 38.375 25.2534 38.375 25.2625C38.375 27.5 33.5057 29.3125 27.5 29.3125C21.4943 29.3125 16.625 27.5 16.625 25.2625C16.625 25.2534 16.6286 25.2434 16.6286 25.2344H16.625V22.1205C19.0003 23.9303 23.3539 24.7812 27.5 24.7812C31.6461 24.7812 35.9997 23.9303 38.375 22.1205V25.2344ZM27.5 22.9688C21.4934 22.9688 16.625 21.1417 16.625 18.8906C16.625 16.6377 21.4934 14.8125 27.5 14.8125C33.5057 14.8125 38.375 16.6377 38.375 18.8906C38.375 21.1417 33.5057 22.9688 27.5 22.9688Z" fill="white"/>
<path d="M35.6562 37.4688C36.1568 37.4688 36.5625 37.063 36.5625 36.5625C36.5625 36.062 36.1568 35.6562 35.6562 35.6562C35.1557 35.6562 34.75 36.062 34.75 36.5625C34.75 37.063 35.1557 37.4688 35.6562 37.4688Z" fill="#808080"/>
<path d="M35.6562 32.0312C36.1568 32.0312 36.5625 31.6255 36.5625 31.125C36.5625 30.6245 36.1568 30.2188 35.6562 30.2188C35.1557 30.2188 34.75 30.6245 34.75 31.125C34.75 31.6255 35.1557 32.0312 35.6562 32.0312Z" fill="#808080"/>
<path d="M35.6562 26.5938C36.1568 26.5938 36.5625 26.188 36.5625 25.6875C36.5625 25.187 36.1568 24.7812 35.6562 24.7812C35.1557 24.7812 34.75 25.187 34.75 25.6875C34.75 26.188 35.1557 26.5938 35.6562 26.5938Z" fill="#808080"/>
</svg>
