<svg width="55" height="55" viewBox="0 0 55 55" fill="none" xmlns="http://www.w3.org/2000/svg">
<rect width="55" height="55" fill="#D89E24"/>
<g clip-path="url(#clip0_37_500)">
<path d="M41.4562 23.15L38.7375 19.5268C38.6315 19.3845 38.5055 19.2613 38.375 19.1435V14.8125C38.375 13.812 37.563 13 36.5625 13H18.4375C17.4361 13 16.625 13.812 16.625 14.8125V19.1444C16.4945 19.2613 16.3685 19.3836 16.2625 19.525L13.5447 23.1491C13.193 23.6167 13 24.1958 13 24.7812V25.6875C13 27.1864 14.2198 28.4062 15.7188 28.4062V40.1875C15.7188 41.188 16.5308 42 17.5312 42H37.4688C38.4692 42 39.2812 41.188 39.2812 40.1875V28.4062C40.7802 28.4062 42 27.1864 42 25.6875V24.7812C42 24.1958 41.807 23.6167 41.4562 23.15ZM36.5625 14.8125V18.4375H18.4375V14.8125H36.5625ZM22.2374 26.5938H18.4411L22.0661 20.25H24.0499L22.2374 26.5938ZM24.9933 20.25H27.0469V26.5938H23.1808L24.9933 20.25ZM27.9531 20.25H30.0067L31.8192 26.5938H27.9531V20.25ZM30.9483 20.25H32.9321L36.5571 26.5938H32.7608L30.9483 20.25ZM14.8125 25.6875V24.7812C14.8125 24.5846 14.8759 24.3943 14.9938 24.2375L17.7125 20.6125C17.8838 20.3841 18.152 20.25 18.4375 20.25H21.0221L17.3971 26.5938H15.7188C15.2185 26.5938 14.8125 26.1887 14.8125 25.6875ZM31.125 40.1875H24.3281V31.125H31.125V40.1875ZM37.4688 40.1875H32.0312V31.125C32.0312 30.6238 31.6243 30.2188 31.125 30.2188H24.3281C23.8279 30.2188 23.4219 30.6238 23.4219 31.125V40.1875H17.5312V28.4062H37.4688V40.1875ZM40.1875 25.6875C40.1875 26.1887 39.7824 26.5938 39.2812 26.5938H37.6011L33.9761 20.25H36.5625C36.8471 20.25 37.1162 20.3841 37.2866 20.6125L40.0053 24.2375C40.1241 24.3943 40.1875 24.5846 40.1875 24.7812V25.6875Z" fill="white"/>
</g>
<defs>
<clipPath id="clip0_37_500">
<rect width="29" height="29" fill="white" transform="translate(13 13)"/>
</clipPath>
</defs>
</svg>
