<svg width="55" height="55" viewBox="0 0 55 55" fill="none" xmlns="http://www.w3.org/2000/svg">
<rect width="55" height="55" fill="#274D97"/>
<path fill-rule="evenodd" clip-rule="evenodd" d="M41.4481 25.5815L36.9168 18.3315C36.2553 17.2721 35.0935 16.6277 33.8438 16.6277H16.625C14.6231 16.6277 13 18.2508 13 20.2527V34.7527C13 36.7546 14.6231 38.3777 16.625 38.3777H33.8438C35.0935 38.3777 36.2544 37.7334 36.9168 36.6731L41.4481 29.4231C42.184 28.2495 42.184 26.7569 41.4481 25.5815ZM39.9111 28.4624L35.3798 35.7142C35.0472 36.2471 34.4718 36.5652 33.8438 36.5652H16.625C15.6254 36.5652 14.8125 35.7514 14.8125 34.7527V20.2527C14.8125 19.2531 15.6254 18.4402 16.625 18.4402H33.8438C34.4718 18.4402 35.0472 18.7592 35.3798 19.2912L39.9111 26.5412C40.2763 27.1257 40.2763 27.8797 39.9111 28.4624Z" fill="white"/>
<path fill-rule="evenodd" clip-rule="evenodd" d="M33.8438 24.784C32.3412 24.784 31.125 26.0011 31.125 27.5027C31.125 29.0044 32.3412 30.2215 33.8438 30.2215C35.3445 30.2215 36.5625 29.0035 36.5625 27.5027C36.5625 26.0011 35.3445 24.784 33.8438 24.784ZM33.8438 29.3161C32.8423 29.3161 32.0312 28.5041 32.0312 27.5036C32.0312 26.5031 32.8423 25.6911 33.8438 25.6911C34.8442 25.6911 35.6562 26.5031 35.6562 27.5036C35.6562 28.5032 34.8442 29.3161 33.8438 29.3161Z" fill="white"/>
</svg>
