<svg width="55" height="55" viewBox="0 0 55 55" fill="none" xmlns="http://www.w3.org/2000/svg">
<rect width="55" height="55" fill="#C32056"/>
<g clip-path="url(#clip0_37_654)">
<path d="M41.5859 13.145C41.4354 13.048 41.2642 13 41.0938 13C40.9189 13 40.7431 13.0498 40.5908 13.1523L13.4033 31.2773C13.1233 31.463 12.9692 31.7902 13.0055 32.1255C13.0399 32.4599 13.2574 32.749 13.5701 32.8723L20.6606 35.7097L23.9947 41.5442C24.1542 41.8242 24.4505 41.9973 24.7713 42.0009C24.7749 42.0009 24.7777 42.0009 24.7813 42.0009C25.0994 42.0009 25.3948 41.8323 25.5579 41.5605L27.4402 38.4221L36.2263 41.9357C36.3342 41.9792 36.4474 42 36.5625 42C36.7166 42 36.8689 41.961 37.0066 41.8831C37.2459 41.749 37.4099 41.5133 37.4561 41.2424L41.9874 14.0549C42.0463 13.6987 41.8886 13.3417 41.5859 13.145ZM15.842 31.8292L36.8444 17.8267L21.5741 34.1727C21.4934 34.1247 21.4218 34.0613 21.333 34.0259L15.842 31.8292ZM22.2338 34.8098C22.232 34.8062 22.2293 34.8044 22.2275 34.8008L39.3946 16.4265L24.7595 39.2296L22.2338 34.8098ZM35.8529 39.8332L28.1127 36.7374C27.9287 36.6649 27.7375 36.6404 27.5481 36.6296L39.4671 18.1529L35.8529 39.8332Z" fill="white"/>
</g>
<defs>
<clipPath id="clip0_37_654">
<rect width="29" height="29" fill="white" transform="translate(13 13)"/>
</clipPath>
</defs>
</svg>
