<svg width="234" height="134" viewBox="0 0 234 134" fill="none" xmlns="http://www.w3.org/2000/svg">
<rect width="234" height="134" fill="#448B00"/>
<g clip-path="url(#clip0_101_757)">
<path d="M53.4493 106.067V98.616H36.9739V106.067V109.991H53.4493V106.067Z" fill="white"/>
<path d="M16.1953 91.1453V94.8906V98.616V102.341V106.067V109.991H32.6508V106.067V102.341V98.616V94.8906V91.1453V83.6945H16.1953V91.1453Z" fill="white"/>
<path d="M32.6508 53.8516V46.3809H16.1953V53.8516V57.577H32.6508V53.8516Z" fill="white"/>
<path d="M32.6508 76.2238V72.4984V68.773V61.3023H16.1953V68.773V72.4984V76.2238V79.9691H32.6508V76.2238Z" fill="white"/>
<path d="M53.4493 76.2238V72.4984V68.773V61.3023H36.9739V68.773V72.4984V76.2238V79.9691H53.4493V76.2238Z" fill="white"/>
<path d="M53.4493 91.1453V83.6945H36.9739V91.1453V94.8906H53.4493V91.1453Z" fill="white"/>
<path d="M53.4493 53.8515V50.1261V46.3808V38.9301H36.9739V46.3808V50.1261V53.8515V57.5769H53.4493V53.8515Z" fill="white"/>
<path d="M53.4493 31.4594V24.0086H36.9739V31.4594V35.2047H53.4493V31.4594Z" fill="white"/>
<path d="M74.2277 83.6945H57.7722V87.4199H74.2277V83.6945Z" fill="white"/>
<path d="M74.2277 106.067V102.341V98.616V91.1453H57.7722V98.616V102.341V106.067V109.991H74.2277V106.067Z" fill="white"/>
<path d="M95.0062 61.3023H78.5508V65.0277H95.0062V61.3023Z" fill="white"/>
<path d="M95.0262 106.067V102.341V98.616V94.8906V91.1453V83.6945H78.5508V91.1453V94.8906V98.616V102.341V106.067V109.991H95.0262V106.067Z" fill="white"/>
<path d="M95.0262 76.2238V68.773H78.5508V76.2238V79.9691H95.0262V76.2238Z" fill="white"/>
<path d="M115.805 61.3023V53.8516H99.3492V61.3023V65.0477H115.805V61.3023Z" fill="white"/>
<path d="M115.805 31.4594H99.3492V35.1847H115.805V31.4594Z" fill="white"/>
<path d="M115.805 46.3808V38.9301H99.3492V46.3808V50.1261H115.805V46.3808Z" fill="white"/>
<path d="M115.805 83.6945V79.9691V76.2238V68.773H99.3492V76.2238V79.9691V83.6945V87.4199H115.805V83.6945Z" fill="white"/>
<path d="M115.805 106.067V102.341V98.616V91.1453H99.3492V98.616V102.341V106.067V109.991H115.805V106.067Z" fill="white"/>
<path d="M157.867 105.655V98.2039H141.392V105.655V109.579H157.867V105.655Z" fill="white"/>
<path d="M120.613 90.7331V94.4784V98.2038V101.929V105.655V109.579H137.069V105.655V101.929V98.2038V94.4784V90.7331V83.2823H120.613V90.7331Z" fill="white"/>
<path d="M137.069 53.4394V45.9687H120.613V53.4394V57.1648H137.069V53.4394Z" fill="white"/>
<path d="M137.069 75.8116V72.0862V68.3608V60.8901H120.613V68.3608V72.0862V75.8116V79.5569H137.069V75.8116Z" fill="white"/>
<path d="M157.867 75.8116V72.0862V68.3608V60.8901H141.392V68.3608V72.0862V75.8116V79.5569H157.867V75.8116Z" fill="white"/>
<path d="M157.867 90.7331V83.2823H141.392V90.7331V94.4784H157.867V90.7331Z" fill="white"/>
<path d="M157.867 53.4394V49.714V45.9687V38.5179H141.392V45.9687V49.714V53.4394V57.1648H157.867V53.4394Z" fill="white"/>
<path d="M157.867 31.0472V23.5964H141.392V31.0472V34.7925H157.867V31.0472Z" fill="white"/>
<path d="M178.646 83.2823H162.19V87.0077H178.646V83.2823Z" fill="white"/>
<path d="M178.646 105.655V101.929V98.2039V90.7332H162.19V98.2039V101.929V105.655V109.579H178.646V105.655Z" fill="white"/>
<path d="M199.424 60.8901H182.969V64.6155H199.424V60.8901Z" fill="white"/>
<path d="M199.444 105.655V101.929V98.2038V94.4784V90.7331V83.2823H182.969V90.7331V94.4784V98.2038V101.929V105.655V109.579H199.444V105.655Z" fill="white"/>
<path d="M199.444 75.8116V68.3608H182.969V75.8116V79.5569H199.444V75.8116Z" fill="white"/>
<path d="M220.223 60.8902V53.4394H203.767V60.8902V64.6355H220.223V60.8902Z" fill="white"/>
<path d="M220.223 31.0472H203.767V34.7726H220.223V31.0472Z" fill="white"/>
<path d="M220.223 45.9687V38.5179H203.767V45.9687V49.714H220.223V45.9687Z" fill="white"/>
<path d="M220.223 83.2823V79.5569V75.8116V68.3608H203.767V75.8116V79.5569V83.2823V87.0077H220.223V83.2823Z" fill="white"/>
<path d="M220.223 105.655V101.929V98.2039V90.7332H203.767V98.2039V101.929V105.655V109.579H220.223V105.655Z" fill="white"/>
</g>
<defs>
<clipPath id="clip0_101_757">
<rect width="204" height="102" fill="white" transform="translate(15 16)"/>
</clipPath>
</defs>
</svg>
