<svg width="359" height="60" viewBox="0 0 359 60" fill="none" xmlns="http://www.w3.org/2000/svg">
<rect width="359" height="60" fill="#274D97"/>
<path d="M29.5469 23.2734V24.5H23.5234V23.2734H29.5469ZM23.8281 13.125V24.5H22.3203V13.125H23.8281ZM28.75 18.0156V19.2422H23.5234V18.0156H28.75ZM29.4688 13.125V14.3594H23.5234V13.125H29.4688ZM32.6328 17.7266V24.5H31.1797V16.0469H32.5547L32.6328 17.7266ZM32.3359 19.9531L31.6641 19.9297C31.6693 19.3516 31.7448 18.8177 31.8906 18.3281C32.0365 17.8333 32.2526 17.4036 32.5391 17.0391C32.8255 16.6745 33.1823 16.3932 33.6094 16.1953C34.0365 15.9922 34.5312 15.8906 35.0938 15.8906C35.4896 15.8906 35.8542 15.9479 36.1875 16.0625C36.5208 16.1719 36.8099 16.3464 37.0547 16.5859C37.2995 16.8255 37.4896 17.1328 37.625 17.5078C37.7604 17.8828 37.8281 18.3359 37.8281 18.8672V24.5H36.3828V18.9375C36.3828 18.4948 36.3073 18.1406 36.1562 17.875C36.0104 17.6094 35.8021 17.4167 35.5312 17.2969C35.2604 17.1719 34.9427 17.1094 34.5781 17.1094C34.151 17.1094 33.7943 17.1849 33.5078 17.3359C33.2214 17.487 32.9922 17.6953 32.8203 17.9609C32.6484 18.2266 32.5234 18.5312 32.4453 18.875C32.3724 19.2135 32.3359 19.5729 32.3359 19.9531ZM37.8125 19.1562L36.8438 19.4531C36.849 18.9896 36.9245 18.5443 37.0703 18.1172C37.2214 17.6901 37.4375 17.3099 37.7188 16.9766C38.0052 16.6432 38.3568 16.3802 38.7734 16.1875C39.1901 15.9896 39.6667 15.8906 40.2031 15.8906C40.6562 15.8906 41.0573 15.9505 41.4062 16.0703C41.7604 16.1901 42.0573 16.375 42.2969 16.625C42.5417 16.8698 42.7266 17.1849 42.8516 17.5703C42.9766 17.9557 43.0391 18.4141 43.0391 18.9453V24.5H41.5859V18.9297C41.5859 18.4557 41.5104 18.0885 41.3594 17.8281C41.2135 17.5625 41.0052 17.3776 40.7344 17.2734C40.4688 17.1641 40.151 17.1094 39.7812 17.1094C39.4635 17.1094 39.1823 17.1641 38.9375 17.2734C38.6927 17.3828 38.487 17.5339 38.3203 17.7266C38.1536 17.9141 38.026 18.1302 37.9375 18.375C37.8542 18.6198 37.8125 18.8802 37.8125 19.1562ZM46.6719 17.6719V27.75H45.2188V16.0469H46.5469L46.6719 17.6719ZM52.3672 20.2031V20.3672C52.3672 20.9818 52.2943 21.5521 52.1484 22.0781C52.0026 22.599 51.7891 23.0521 51.5078 23.4375C51.2318 23.8229 50.8906 24.1224 50.4844 24.3359C50.0781 24.5495 49.612 24.6562 49.0859 24.6562C48.5495 24.6562 48.0755 24.5677 47.6641 24.3906C47.2526 24.2135 46.9036 23.9557 46.6172 23.6172C46.3307 23.2786 46.1016 22.8724 45.9297 22.3984C45.763 21.9245 45.6484 21.3906 45.5859 20.7969V19.9219C45.6484 19.2969 45.7656 18.737 45.9375 18.2422C46.1094 17.7474 46.3359 17.3255 46.6172 16.9766C46.9036 16.6224 47.25 16.3542 47.6562 16.1719C48.0625 15.9844 48.5312 15.8906 49.0625 15.8906C49.5938 15.8906 50.0651 15.9948 50.4766 16.2031C50.888 16.4062 51.2344 16.6979 51.5156 17.0781C51.7969 17.4583 52.0078 17.9141 52.1484 18.4453C52.2943 18.9714 52.3672 19.5573 52.3672 20.2031ZM50.9141 20.3672V20.2031C50.9141 19.7812 50.8698 19.3854 50.7812 19.0156C50.6927 18.6406 50.5547 18.3125 50.3672 18.0312C50.1849 17.7448 49.9505 17.5208 49.6641 17.3594C49.3776 17.1927 49.0365 17.1094 48.6406 17.1094C48.276 17.1094 47.9583 17.1719 47.6875 17.2969C47.4219 17.4219 47.1953 17.5911 47.0078 17.8047C46.8203 18.013 46.6667 18.2526 46.5469 18.5234C46.4323 18.7891 46.3464 19.0651 46.2891 19.3516V21.375C46.3932 21.7396 46.5391 22.0833 46.7266 22.4062C46.9141 22.724 47.1641 22.9818 47.4766 23.1797C47.7891 23.3724 48.1823 23.4688 48.6562 23.4688C49.0469 23.4688 49.3828 23.388 49.6641 23.2266C49.9505 23.0599 50.1849 22.8333 50.3672 22.5469C50.5547 22.2604 50.6927 21.9323 50.7812 21.5625C50.8698 21.1875 50.9141 20.7891 50.9141 20.3672ZM55.7812 12.5V24.5H54.3281V12.5H55.7812ZM57.7188 20.3672V20.1875C57.7188 19.5781 57.8073 19.013 57.9844 18.4922C58.1615 17.9661 58.4167 17.5104 58.75 17.125C59.0833 16.7344 59.487 16.4323 59.9609 16.2188C60.4349 16 60.9661 15.8906 61.5547 15.8906C62.1484 15.8906 62.6823 16 63.1562 16.2188C63.6354 16.4323 64.0417 16.7344 64.375 17.125C64.7135 17.5104 64.9714 17.9661 65.1484 18.4922C65.3255 19.013 65.4141 19.5781 65.4141 20.1875V20.3672C65.4141 20.9766 65.3255 21.5417 65.1484 22.0625C64.9714 22.5833 64.7135 23.0391 64.375 23.4297C64.0417 23.8151 63.638 24.1172 63.1641 24.3359C62.6953 24.5495 62.1641 24.6562 61.5703 24.6562C60.9766 24.6562 60.4427 24.5495 59.9688 24.3359C59.4948 24.1172 59.0885 23.8151 58.75 23.4297C58.4167 23.0391 58.1615 22.5833 57.9844 22.0625C57.8073 21.5417 57.7188 20.9766 57.7188 20.3672ZM59.1641 20.1875V20.3672C59.1641 20.7891 59.2135 21.1875 59.3125 21.5625C59.4115 21.9323 59.5599 22.2604 59.7578 22.5469C59.9609 22.8333 60.2135 23.0599 60.5156 23.2266C60.8177 23.388 61.1693 23.4688 61.5703 23.4688C61.9661 23.4688 62.3125 23.388 62.6094 23.2266C62.9115 23.0599 63.1615 22.8333 63.3594 22.5469C63.5573 22.2604 63.7057 21.9323 63.8047 21.5625C63.9089 21.1875 63.9609 20.7891 63.9609 20.3672V20.1875C63.9609 19.7708 63.9089 19.3776 63.8047 19.0078C63.7057 18.6328 63.5547 18.3021 63.3516 18.0156C63.1536 17.724 62.9036 17.4948 62.6016 17.3281C62.3047 17.1615 61.9557 17.0781 61.5547 17.0781C61.1589 17.0781 60.8099 17.1615 60.5078 17.3281C60.2109 17.4948 59.9609 17.724 59.7578 18.0156C59.5599 18.3021 59.4115 18.6328 59.3125 19.0078C59.2135 19.3776 59.1641 19.7708 59.1641 20.1875ZM69.4766 23.625L71.8281 16.0469H73.375L69.9844 25.8047C69.9062 26.013 69.8021 26.237 69.6719 26.4766C69.5469 26.7214 69.3854 26.9531 69.1875 27.1719C68.9896 27.3906 68.75 27.5677 68.4688 27.7031C68.1927 27.8438 67.862 27.9141 67.4766 27.9141C67.362 27.9141 67.2161 27.8984 67.0391 27.8672C66.862 27.8359 66.737 27.8099 66.6641 27.7891L66.6562 26.6172C66.6979 26.6224 66.763 26.6276 66.8516 26.6328C66.9453 26.6432 67.0104 26.6484 67.0469 26.6484C67.375 26.6484 67.6536 26.6042 67.8828 26.5156C68.112 26.4323 68.3047 26.2891 68.4609 26.0859C68.6224 25.888 68.7604 25.6146 68.875 25.2656L69.4766 23.625ZM67.75 16.0469L69.9453 22.6094L70.3203 24.1328L69.2812 24.6641L66.1719 16.0469H67.75ZM78.0781 24.6562C77.4896 24.6562 76.9557 24.5573 76.4766 24.3594C76.0026 24.1562 75.5938 23.8724 75.25 23.5078C74.9115 23.1432 74.651 22.7109 74.4688 22.2109C74.2865 21.7109 74.1953 21.1641 74.1953 20.5703V20.2422C74.1953 19.5547 74.2969 18.9427 74.5 18.4062C74.7031 17.8646 74.9792 17.4062 75.3281 17.0312C75.6771 16.6562 76.0729 16.3724 76.5156 16.1797C76.9583 15.987 77.4167 15.8906 77.8906 15.8906C78.4948 15.8906 79.0156 15.9948 79.4531 16.2031C79.8958 16.4115 80.2578 16.7031 80.5391 17.0781C80.8203 17.4479 81.0286 17.8854 81.1641 18.3906C81.2995 18.8906 81.3672 19.4375 81.3672 20.0312V20.6797H75.0547V19.5H79.9219V19.3906C79.901 19.0156 79.8229 18.651 79.6875 18.2969C79.5573 17.9427 79.349 17.651 79.0625 17.4219C78.776 17.1927 78.3854 17.0781 77.8906 17.0781C77.5625 17.0781 77.2604 17.1484 76.9844 17.2891C76.7083 17.4245 76.4714 17.6276 76.2734 17.8984C76.0755 18.1693 75.9219 18.5 75.8125 18.8906C75.7031 19.2812 75.6484 19.7318 75.6484 20.2422V20.5703C75.6484 20.9714 75.7031 21.349 75.8125 21.7031C75.9271 22.0521 76.0911 22.3594 76.3047 22.625C76.5234 22.8906 76.7865 23.099 77.0938 23.25C77.4062 23.401 77.7604 23.4766 78.1562 23.4766C78.6667 23.4766 79.099 23.3724 79.4531 23.1641C79.8073 22.9557 80.1172 22.6771 80.3828 22.3281L81.2578 23.0234C81.0755 23.2995 80.8438 23.5625 80.5625 23.8125C80.2812 24.0625 79.9349 24.2656 79.5234 24.4219C79.1172 24.5781 78.6354 24.6562 78.0781 24.6562ZM87.9766 22.2578C87.9766 22.0495 87.9297 21.8568 87.8359 21.6797C87.7474 21.4974 87.5625 21.3333 87.2812 21.1875C87.0052 21.0365 86.5885 20.9062 86.0312 20.7969C85.5625 20.6979 85.138 20.5807 84.7578 20.4453C84.3828 20.3099 84.0625 20.1458 83.7969 19.9531C83.5365 19.7604 83.3359 19.5339 83.1953 19.2734C83.0547 19.013 82.9844 18.7083 82.9844 18.3594C82.9844 18.026 83.0573 17.7109 83.2031 17.4141C83.3542 17.1172 83.5651 16.8542 83.8359 16.625C84.112 16.3958 84.4427 16.2161 84.8281 16.0859C85.2135 15.9557 85.6432 15.8906 86.1172 15.8906C86.7943 15.8906 87.3724 16.0104 87.8516 16.25C88.3307 16.4896 88.6979 16.8099 88.9531 17.2109C89.2083 17.6068 89.3359 18.0469 89.3359 18.5312H87.8906C87.8906 18.2969 87.8203 18.0703 87.6797 17.8516C87.5443 17.6276 87.3438 17.4427 87.0781 17.2969C86.8177 17.151 86.4974 17.0781 86.1172 17.0781C85.7161 17.0781 85.3906 17.1406 85.1406 17.2656C84.8958 17.3854 84.7161 17.5391 84.6016 17.7266C84.4922 17.9141 84.4375 18.112 84.4375 18.3203C84.4375 18.4766 84.4635 18.6172 84.5156 18.7422C84.5729 18.862 84.6719 18.974 84.8125 19.0781C84.9531 19.1771 85.151 19.2708 85.4062 19.3594C85.6615 19.4479 85.987 19.5365 86.3828 19.625C87.0755 19.7812 87.6458 19.9688 88.0938 20.1875C88.5417 20.4062 88.875 20.6745 89.0938 20.9922C89.3125 21.3099 89.4219 21.6953 89.4219 22.1484C89.4219 22.5182 89.3438 22.8568 89.1875 23.1641C89.0365 23.4714 88.8151 23.737 88.5234 23.9609C88.237 24.1797 87.8932 24.3516 87.4922 24.4766C87.0964 24.5964 86.651 24.6562 86.1562 24.6562C85.4115 24.6562 84.7812 24.5234 84.2656 24.2578C83.75 23.9922 83.3594 23.6484 83.0938 23.2266C82.8281 22.8047 82.6953 22.3594 82.6953 21.8906H84.1484C84.1693 22.2865 84.2839 22.6016 84.4922 22.8359C84.7005 23.0651 84.9557 23.2292 85.2578 23.3281C85.5599 23.4219 85.8594 23.4688 86.1562 23.4688C86.5521 23.4688 86.8828 23.4167 87.1484 23.3125C87.4193 23.2083 87.625 23.0651 87.7656 22.8828C87.9062 22.7005 87.9766 22.4922 87.9766 22.2578ZM101.57 21.625C101.57 21.3594 101.529 21.125 101.445 20.9219C101.367 20.7135 101.227 20.526 101.023 20.3594C100.826 20.1927 100.549 20.0339 100.195 19.8828C99.8464 19.7318 99.4036 19.5781 98.8672 19.4219C98.3047 19.2552 97.7969 19.0703 97.3438 18.8672C96.8906 18.6589 96.5026 18.4219 96.1797 18.1562C95.8568 17.8906 95.6094 17.5859 95.4375 17.2422C95.2656 16.8984 95.1797 16.5052 95.1797 16.0625C95.1797 15.6198 95.2708 15.2109 95.4531 14.8359C95.6354 14.4609 95.8958 14.1354 96.2344 13.8594C96.5781 13.5781 96.987 13.3594 97.4609 13.2031C97.9349 13.0469 98.4635 12.9688 99.0469 12.9688C99.901 12.9688 100.625 13.1328 101.219 13.4609C101.818 13.7839 102.273 14.2083 102.586 14.7344C102.898 15.2552 103.055 15.8125 103.055 16.4062H101.555C101.555 15.9792 101.464 15.6016 101.281 15.2734C101.099 14.9401 100.823 14.6797 100.453 14.4922C100.083 14.2995 99.6146 14.2031 99.0469 14.2031C98.5104 14.2031 98.0677 14.2839 97.7188 14.4453C97.3698 14.6068 97.1094 14.8255 96.9375 15.1016C96.7708 15.3776 96.6875 15.6927 96.6875 16.0469C96.6875 16.2865 96.737 16.5052 96.8359 16.7031C96.9401 16.8958 97.099 17.0755 97.3125 17.2422C97.5312 17.4089 97.8073 17.5625 98.1406 17.7031C98.4792 17.8438 98.8828 17.9792 99.3516 18.1094C99.9974 18.2917 100.555 18.4948 101.023 18.7188C101.492 18.9427 101.878 19.1953 102.18 19.4766C102.487 19.7526 102.714 20.0677 102.859 20.4219C103.01 20.7708 103.086 21.1667 103.086 21.6094C103.086 22.0729 102.992 22.4922 102.805 22.8672C102.617 23.2422 102.349 23.5625 102 23.8281C101.651 24.0938 101.232 24.2995 100.742 24.4453C100.258 24.5859 99.7161 24.6562 99.1172 24.6562C98.5911 24.6562 98.0729 24.5833 97.5625 24.4375C97.0573 24.2917 96.5964 24.0729 96.1797 23.7812C95.7682 23.4896 95.4375 23.1302 95.1875 22.7031C94.9427 22.2708 94.8203 21.7708 94.8203 21.2031H96.3203C96.3203 21.5938 96.3958 21.9297 96.5469 22.2109C96.6979 22.487 96.9036 22.7161 97.1641 22.8984C97.4297 23.0807 97.7292 23.2161 98.0625 23.3047C98.401 23.388 98.7526 23.4297 99.1172 23.4297C99.6432 23.4297 100.089 23.3568 100.453 23.2109C100.818 23.0651 101.094 22.8568 101.281 22.5859C101.474 22.3151 101.57 21.9948 101.57 21.625ZM108.328 16.0469V17.1562H103.758V16.0469H108.328ZM105.305 13.9922H106.75V22.4062C106.75 22.6927 106.794 22.9089 106.883 23.0547C106.971 23.2005 107.086 23.2969 107.227 23.3438C107.367 23.3906 107.518 23.4141 107.68 23.4141C107.799 23.4141 107.924 23.4036 108.055 23.3828C108.19 23.3568 108.292 23.3359 108.359 23.3203L108.367 24.5C108.253 24.5365 108.102 24.5703 107.914 24.6016C107.732 24.638 107.51 24.6562 107.25 24.6562C106.896 24.6562 106.57 24.5859 106.273 24.4453C105.977 24.3047 105.74 24.0703 105.562 23.7422C105.391 23.4089 105.305 22.9609 105.305 22.3984V13.9922ZM115.008 23.0547V18.7031C115.008 18.3698 114.94 18.0807 114.805 17.8359C114.674 17.5859 114.477 17.3932 114.211 17.2578C113.945 17.1224 113.617 17.0547 113.227 17.0547C112.862 17.0547 112.542 17.1172 112.266 17.2422C111.995 17.3672 111.781 17.5312 111.625 17.7344C111.474 17.9375 111.398 18.1562 111.398 18.3906H109.953C109.953 18.0885 110.031 17.7891 110.188 17.4922C110.344 17.1953 110.568 16.9271 110.859 16.6875C111.156 16.4427 111.51 16.25 111.922 16.1094C112.339 15.9635 112.802 15.8906 113.312 15.8906C113.927 15.8906 114.469 15.9948 114.938 16.2031C115.411 16.4115 115.781 16.7266 116.047 17.1484C116.318 17.5651 116.453 18.0885 116.453 18.7188V22.6562C116.453 22.9375 116.477 23.237 116.523 23.5547C116.576 23.8724 116.651 24.1458 116.75 24.375V24.5H115.242C115.169 24.3333 115.112 24.112 115.07 23.8359C115.029 23.5547 115.008 23.2943 115.008 23.0547ZM115.258 19.375L115.273 20.3906H113.812C113.401 20.3906 113.034 20.4245 112.711 20.4922C112.388 20.5547 112.117 20.651 111.898 20.7812C111.68 20.9115 111.513 21.0755 111.398 21.2734C111.284 21.4661 111.227 21.6927 111.227 21.9531C111.227 22.2188 111.286 22.4609 111.406 22.6797C111.526 22.8984 111.706 23.0729 111.945 23.2031C112.19 23.3281 112.49 23.3906 112.844 23.3906C113.286 23.3906 113.677 23.2969 114.016 23.1094C114.354 22.9219 114.622 22.6927 114.82 22.4219C115.023 22.151 115.133 21.888 115.148 21.6328L115.766 22.3281C115.729 22.5469 115.63 22.7891 115.469 23.0547C115.307 23.3203 115.091 23.5755 114.82 23.8203C114.555 24.0599 114.237 24.2604 113.867 24.4219C113.503 24.5781 113.091 24.6562 112.633 24.6562C112.06 24.6562 111.557 24.5443 111.125 24.3203C110.698 24.0964 110.365 23.7969 110.125 23.4219C109.891 23.0417 109.773 22.6172 109.773 22.1484C109.773 21.6953 109.862 21.2969 110.039 20.9531C110.216 20.6042 110.471 20.3151 110.805 20.0859C111.138 19.8516 111.539 19.6745 112.008 19.5547C112.477 19.4349 113 19.375 113.578 19.375H115.258ZM122.266 16.0469V17.1562H117.695V16.0469H122.266ZM119.242 13.9922H120.688V22.4062C120.688 22.6927 120.732 22.9089 120.82 23.0547C120.909 23.2005 121.023 23.2969 121.164 23.3438C121.305 23.3906 121.456 23.4141 121.617 23.4141C121.737 23.4141 121.862 23.4036 121.992 23.3828C122.128 23.3568 122.229 23.3359 122.297 23.3203L122.305 24.5C122.19 24.5365 122.039 24.5703 121.852 24.6016C121.669 24.638 121.448 24.6562 121.188 24.6562C120.833 24.6562 120.508 24.5859 120.211 24.4453C119.914 24.3047 119.677 24.0703 119.5 23.7422C119.328 23.4089 119.242 22.9609 119.242 22.3984V13.9922ZM128.883 22.2578C128.883 22.0495 128.836 21.8568 128.742 21.6797C128.654 21.4974 128.469 21.3333 128.188 21.1875C127.911 21.0365 127.495 20.9062 126.938 20.7969C126.469 20.6979 126.044 20.5807 125.664 20.4453C125.289 20.3099 124.969 20.1458 124.703 19.9531C124.443 19.7604 124.242 19.5339 124.102 19.2734C123.961 19.013 123.891 18.7083 123.891 18.3594C123.891 18.026 123.964 17.7109 124.109 17.4141C124.26 17.1172 124.471 16.8542 124.742 16.625C125.018 16.3958 125.349 16.2161 125.734 16.0859C126.12 15.9557 126.549 15.8906 127.023 15.8906C127.701 15.8906 128.279 16.0104 128.758 16.25C129.237 16.4896 129.604 16.8099 129.859 17.2109C130.115 17.6068 130.242 18.0469 130.242 18.5312H128.797C128.797 18.2969 128.727 18.0703 128.586 17.8516C128.451 17.6276 128.25 17.4427 127.984 17.2969C127.724 17.151 127.404 17.0781 127.023 17.0781C126.622 17.0781 126.297 17.1406 126.047 17.2656C125.802 17.3854 125.622 17.5391 125.508 17.7266C125.398 17.9141 125.344 18.112 125.344 18.3203C125.344 18.4766 125.37 18.6172 125.422 18.7422C125.479 18.862 125.578 18.974 125.719 19.0781C125.859 19.1771 126.057 19.2708 126.312 19.3594C126.568 19.4479 126.893 19.5365 127.289 19.625C127.982 19.7812 128.552 19.9688 129 20.1875C129.448 20.4062 129.781 20.6745 130 20.9922C130.219 21.3099 130.328 21.6953 130.328 22.1484C130.328 22.5182 130.25 22.8568 130.094 23.1641C129.943 23.4714 129.721 23.737 129.43 23.9609C129.143 24.1797 128.799 24.3516 128.398 24.4766C128.003 24.5964 127.557 24.6562 127.062 24.6562C126.318 24.6562 125.688 24.5234 125.172 24.2578C124.656 23.9922 124.266 23.6484 124 23.2266C123.734 22.8047 123.602 22.3594 123.602 21.8906H125.055C125.076 22.2865 125.19 22.6016 125.398 22.8359C125.607 23.0651 125.862 23.2292 126.164 23.3281C126.466 23.4219 126.766 23.4688 127.062 23.4688C127.458 23.4688 127.789 23.4167 128.055 23.3125C128.326 23.2083 128.531 23.0651 128.672 22.8828C128.812 22.7005 128.883 22.4922 128.883 22.2578Z" fill="white"/>
<path d="M28.5527 38.9688V47.5H27.416L23.1211 40.9199V47.5H21.9902V38.9688H23.1211L27.4336 45.5664V38.9688H28.5527ZM33.0234 47.6172C32.582 47.6172 32.1816 47.543 31.8223 47.3945C31.4668 47.2422 31.1602 47.0293 30.9023 46.7559C30.6484 46.4824 30.4531 46.1582 30.3164 45.7832C30.1797 45.4082 30.1113 44.998 30.1113 44.5527V44.3066C30.1113 43.791 30.1875 43.332 30.3398 42.9297C30.4922 42.5234 30.6992 42.1797 30.9609 41.8984C31.2227 41.6172 31.5195 41.4043 31.8516 41.2598C32.1836 41.1152 32.5273 41.043 32.8828 41.043C33.3359 41.043 33.7266 41.1211 34.0547 41.2773C34.3867 41.4336 34.6582 41.6523 34.8691 41.9336C35.0801 42.2109 35.2363 42.5391 35.3379 42.918C35.4395 43.293 35.4902 43.7031 35.4902 44.1484V44.6348H30.7559V43.75H34.4062V43.668C34.3906 43.3867 34.332 43.1133 34.2305 42.8477C34.1328 42.582 33.9766 42.3633 33.7617 42.1914C33.5469 42.0195 33.2539 41.9336 32.8828 41.9336C32.6367 41.9336 32.4102 41.9863 32.2031 42.0918C31.9961 42.1934 31.8184 42.3457 31.6699 42.5488C31.5215 42.752 31.4062 43 31.3242 43.293C31.2422 43.5859 31.2012 43.9238 31.2012 44.3066V44.5527C31.2012 44.8535 31.2422 45.1367 31.3242 45.4023C31.4102 45.6641 31.5332 45.8945 31.6934 46.0938C31.8574 46.293 32.0547 46.4492 32.2852 46.5625C32.5195 46.6758 32.7852 46.7324 33.082 46.7324C33.4648 46.7324 33.7891 46.6543 34.0547 46.498C34.3203 46.3418 34.5527 46.1328 34.752 45.8711L35.4082 46.3926C35.2715 46.5996 35.0977 46.7969 34.8867 46.9844C34.6758 47.1719 34.416 47.3242 34.1074 47.4414C33.8027 47.5586 33.4414 47.6172 33.0234 47.6172ZM38.3613 46.375L39.9902 41.1602H40.7051L40.5645 42.1973L38.9062 47.5H38.209L38.3613 46.375ZM37.2656 41.1602L38.6543 46.4336L38.7539 47.5H38.0215L36.1816 41.1602H37.2656ZM42.2637 46.3926L43.5879 41.1602H44.666L42.8262 47.5H42.0996L42.2637 46.3926ZM40.8633 41.1602L42.457 46.2871L42.6387 47.5H41.9473L40.2422 42.1855L40.1016 41.1602H40.8633ZM51.3867 47.6172C50.9453 47.6172 50.5449 47.543 50.1855 47.3945C49.8301 47.2422 49.5234 47.0293 49.2656 46.7559C49.0117 46.4824 48.8164 46.1582 48.6797 45.7832C48.543 45.4082 48.4746 44.998 48.4746 44.5527V44.3066C48.4746 43.791 48.5508 43.332 48.7031 42.9297C48.8555 42.5234 49.0625 42.1797 49.3242 41.8984C49.5859 41.6172 49.8828 41.4043 50.2148 41.2598C50.5469 41.1152 50.8906 41.043 51.2461 41.043C51.6992 41.043 52.0898 41.1211 52.418 41.2773C52.75 41.4336 53.0215 41.6523 53.2324 41.9336C53.4434 42.2109 53.5996 42.5391 53.7012 42.918C53.8027 43.293 53.8535 43.7031 53.8535 44.1484V44.6348H49.1191V43.75H52.7695V43.668C52.7539 43.3867 52.6953 43.1133 52.5938 42.8477C52.4961 42.582 52.3398 42.3633 52.125 42.1914C51.9102 42.0195 51.6172 41.9336 51.2461 41.9336C51 41.9336 50.7734 41.9863 50.5664 42.0918C50.3594 42.1934 50.1816 42.3457 50.0332 42.5488C49.8848 42.752 49.7695 43 49.6875 43.293C49.6055 43.5859 49.5645 43.9238 49.5645 44.3066V44.5527C49.5645 44.8535 49.6055 45.1367 49.6875 45.4023C49.7734 45.6641 49.8965 45.8945 50.0566 46.0938C50.2207 46.293 50.418 46.4492 50.6484 46.5625C50.8828 46.6758 51.1484 46.7324 51.4453 46.7324C51.8281 46.7324 52.1523 46.6543 52.418 46.498C52.6836 46.3418 52.916 46.1328 53.1152 45.8711L53.7715 46.3926C53.6348 46.5996 53.4609 46.7969 53.25 46.9844C53.0391 47.1719 52.7793 47.3242 52.4707 47.4414C52.166 47.5586 51.8047 47.6172 51.3867 47.6172ZM56.1973 42.4199V47.5H55.1074V41.1602H56.1387L56.1973 42.4199ZM55.9746 44.0898L55.4707 44.0723C55.4746 43.6387 55.5312 43.2383 55.6406 42.8711C55.75 42.5 55.9121 42.1777 56.127 41.9043C56.3418 41.6309 56.6094 41.4199 56.9297 41.2715C57.25 41.1191 57.6211 41.043 58.043 41.043C58.3398 41.043 58.6133 41.0859 58.8633 41.1719C59.1133 41.2539 59.3301 41.3848 59.5137 41.5645C59.6973 41.7441 59.8398 41.9746 59.9414 42.2559C60.043 42.5371 60.0938 42.877 60.0938 43.2754V47.5H59.0098V43.3281C59.0098 42.9961 58.9531 42.7305 58.8398 42.5312C58.7305 42.332 58.5742 42.1875 58.3711 42.0977C58.168 42.0039 57.9297 41.957 57.6562 41.957C57.3359 41.957 57.0684 42.0137 56.8535 42.127C56.6387 42.2402 56.4668 42.3965 56.3379 42.5957C56.209 42.7949 56.1152 43.0234 56.0566 43.2812C56.002 43.5352 55.9746 43.8047 55.9746 44.0898ZM60.082 43.4922L59.3555 43.7148C59.3594 43.3672 59.416 43.0332 59.5254 42.7129C59.6387 42.3926 59.8008 42.1074 60.0117 41.8574C60.2266 41.6074 60.4902 41.4102 60.8027 41.2656C61.1152 41.1172 61.4727 41.043 61.875 41.043C62.2148 41.043 62.5156 41.0879 62.7773 41.1777C63.043 41.2676 63.2656 41.4062 63.4453 41.5938C63.6289 41.7773 63.7676 42.0137 63.8613 42.3027C63.9551 42.5918 64.002 42.9355 64.002 43.334V47.5H62.9121V43.3223C62.9121 42.9668 62.8555 42.6914 62.7422 42.4961C62.6328 42.2969 62.4766 42.1582 62.2734 42.0801C62.0742 41.998 61.8359 41.957 61.5586 41.957C61.3203 41.957 61.1094 41.998 60.9258 42.0801C60.7422 42.1621 60.5879 42.2754 60.4629 42.4199C60.3379 42.5605 60.2422 42.7227 60.1758 42.9062C60.1133 43.0898 60.082 43.2852 60.082 43.4922ZM66.7266 42.3789V49.9375H65.6367V41.1602H66.6328L66.7266 42.3789ZM70.998 44.2773V44.4004C70.998 44.8613 70.9434 45.2891 70.834 45.6836C70.7246 46.0742 70.5645 46.4141 70.3535 46.7031C70.1465 46.9922 69.8906 47.2168 69.5859 47.377C69.2812 47.5371 68.9316 47.6172 68.5371 47.6172C68.1348 47.6172 67.7793 47.5508 67.4707 47.418C67.1621 47.2852 66.9004 47.0918 66.6855 46.8379C66.4707 46.584 66.2988 46.2793 66.1699 45.9238C66.0449 45.5684 65.959 45.168 65.9121 44.7227V44.0664C65.959 43.5977 66.0469 43.1777 66.1758 42.8066C66.3047 42.4355 66.4746 42.1191 66.6855 41.8574C66.9004 41.5918 67.1602 41.3906 67.4648 41.2539C67.7695 41.1133 68.1211 41.043 68.5195 41.043C68.918 41.043 69.2715 41.1211 69.5801 41.2773C69.8887 41.4297 70.1484 41.6484 70.3594 41.9336C70.5703 42.2188 70.7285 42.5605 70.834 42.959C70.9434 43.3535 70.998 43.793 70.998 44.2773ZM69.9082 44.4004V44.2773C69.9082 43.9609 69.875 43.6641 69.8086 43.3867C69.7422 43.1055 69.6387 42.8594 69.498 42.6484C69.3613 42.4336 69.1855 42.2656 68.9707 42.1445C68.7559 42.0195 68.5 41.957 68.2031 41.957C67.9297 41.957 67.6914 42.0039 67.4883 42.0977C67.2891 42.1914 67.1191 42.3184 66.9785 42.4785C66.8379 42.6348 66.7227 42.8145 66.6328 43.0176C66.5469 43.2168 66.4824 43.4238 66.4395 43.6387V45.1562C66.5176 45.4297 66.627 45.6875 66.7676 45.9297C66.9082 46.168 67.0957 46.3613 67.3301 46.5098C67.5645 46.6543 67.8594 46.7266 68.2148 46.7266C68.5078 46.7266 68.7598 46.666 68.9707 46.5449C69.1855 46.4199 69.3613 46.25 69.498 46.0352C69.6387 45.8203 69.7422 45.5742 69.8086 45.2969C69.875 45.0156 69.9082 44.7168 69.9082 44.4004ZM73.5586 38.5V47.5H72.4688V38.5H73.5586ZM75.0117 44.4004V44.2656C75.0117 43.8086 75.0781 43.3848 75.2109 42.9941C75.3438 42.5996 75.5352 42.2578 75.7852 41.9688C76.0352 41.6758 76.3379 41.4492 76.6934 41.2891C77.0488 41.125 77.4473 41.043 77.8887 41.043C78.334 41.043 78.7344 41.125 79.0898 41.2891C79.4492 41.4492 79.7539 41.6758 80.0039 41.9688C80.2578 42.2578 80.4512 42.5996 80.584 42.9941C80.7168 43.3848 80.7832 43.8086 80.7832 44.2656V44.4004C80.7832 44.8574 80.7168 45.2812 80.584 45.6719C80.4512 46.0625 80.2578 46.4043 80.0039 46.6973C79.7539 46.9863 79.4512 47.2129 79.0957 47.377C78.7441 47.5371 78.3457 47.6172 77.9004 47.6172C77.4551 47.6172 77.0547 47.5371 76.6992 47.377C76.3438 47.2129 76.0391 46.9863 75.7852 46.6973C75.5352 46.4043 75.3438 46.0625 75.2109 45.6719C75.0781 45.2812 75.0117 44.8574 75.0117 44.4004ZM76.0957 44.2656V44.4004C76.0957 44.7168 76.1328 45.0156 76.207 45.2969C76.2812 45.5742 76.3926 45.8203 76.541 46.0352C76.6934 46.25 76.8828 46.4199 77.1094 46.5449C77.3359 46.666 77.5996 46.7266 77.9004 46.7266C78.1973 46.7266 78.457 46.666 78.6797 46.5449C78.9062 46.4199 79.0938 46.25 79.2422 46.0352C79.3906 45.8203 79.502 45.5742 79.5762 45.2969C79.6543 45.0156 79.6934 44.7168 79.6934 44.4004V44.2656C79.6934 43.9531 79.6543 43.6582 79.5762 43.3809C79.502 43.0996 79.3887 42.8516 79.2363 42.6367C79.0879 42.418 78.9004 42.2461 78.6738 42.1211C78.4512 41.9961 78.1895 41.9336 77.8887 41.9336C77.5918 41.9336 77.3301 41.9961 77.1035 42.1211C76.8809 42.2461 76.6934 42.418 76.541 42.6367C76.3926 42.8516 76.2812 43.0996 76.207 43.3809C76.1328 43.6582 76.0957 43.9531 76.0957 44.2656ZM83.8301 46.8438L85.5938 41.1602H86.7539L84.2109 48.4785C84.1523 48.6348 84.0742 48.8027 83.9766 48.9824C83.8828 49.166 83.7617 49.3398 83.6133 49.5039C83.4648 49.668 83.2852 49.8008 83.0742 49.9023C82.8672 50.0078 82.6191 50.0605 82.3301 50.0605C82.2441 50.0605 82.1348 50.0488 82.002 50.0254C81.8691 50.002 81.7754 49.9824 81.7207 49.9668L81.7148 49.0879C81.7461 49.0918 81.7949 49.0957 81.8613 49.0996C81.9316 49.1074 81.9805 49.1113 82.0078 49.1113C82.2539 49.1113 82.4629 49.0781 82.6348 49.0117C82.8066 48.9492 82.9512 48.8418 83.0684 48.6895C83.1895 48.541 83.293 48.3359 83.3789 48.0742L83.8301 46.8438ZM82.5352 41.1602L84.1816 46.082L84.4629 47.2246L83.6836 47.623L81.3516 41.1602H82.5352ZM88.8164 42.1562V47.5H87.7324V41.1602H88.7871L88.8164 42.1562ZM90.7969 41.125L90.791 42.1328C90.7012 42.1133 90.6152 42.1016 90.5332 42.0977C90.4551 42.0898 90.3652 42.0859 90.2637 42.0859C90.0137 42.0859 89.793 42.125 89.6016 42.2031C89.4102 42.2812 89.248 42.3906 89.1152 42.5312C88.9824 42.6719 88.877 42.8398 88.7988 43.0352C88.7246 43.2266 88.6758 43.4375 88.6523 43.668L88.3477 43.8438C88.3477 43.4609 88.3848 43.1016 88.459 42.7656C88.5371 42.4297 88.6562 42.1328 88.8164 41.875C88.9766 41.6133 89.1797 41.4102 89.4258 41.2656C89.6758 41.1172 89.9727 41.043 90.3164 41.043C90.3945 41.043 90.4844 41.0527 90.5859 41.0723C90.6875 41.0879 90.7578 41.1055 90.7969 41.125ZM94.3125 47.6172C93.8711 47.6172 93.4707 47.543 93.1113 47.3945C92.7559 47.2422 92.4492 47.0293 92.1914 46.7559C91.9375 46.4824 91.7422 46.1582 91.6055 45.7832C91.4688 45.4082 91.4004 44.998 91.4004 44.5527V44.3066C91.4004 43.791 91.4766 43.332 91.6289 42.9297C91.7812 42.5234 91.9883 42.1797 92.25 41.8984C92.5117 41.6172 92.8086 41.4043 93.1406 41.2598C93.4727 41.1152 93.8164 41.043 94.1719 41.043C94.625 41.043 95.0156 41.1211 95.3438 41.2773C95.6758 41.4336 95.9473 41.6523 96.1582 41.9336C96.3691 42.2109 96.5254 42.5391 96.627 42.918C96.7285 43.293 96.7793 43.7031 96.7793 44.1484V44.6348H92.0449V43.75H95.6953V43.668C95.6797 43.3867 95.6211 43.1133 95.5195 42.8477C95.4219 42.582 95.2656 42.3633 95.0508 42.1914C94.8359 42.0195 94.543 41.9336 94.1719 41.9336C93.9258 41.9336 93.6992 41.9863 93.4922 42.0918C93.2852 42.1934 93.1074 42.3457 92.959 42.5488C92.8105 42.752 92.6953 43 92.6133 43.293C92.5312 43.5859 92.4902 43.9238 92.4902 44.3066V44.5527C92.4902 44.8535 92.5312 45.1367 92.6133 45.4023C92.6992 45.6641 92.8223 45.8945 92.9824 46.0938C93.1465 46.293 93.3438 46.4492 93.5742 46.5625C93.8086 46.6758 94.0742 46.7324 94.3711 46.7324C94.7539 46.7324 95.0781 46.6543 95.3438 46.498C95.6094 46.3418 95.8418 46.1328 96.041 45.8711L96.6973 46.3926C96.5605 46.5996 96.3867 46.7969 96.1758 46.9844C95.9648 47.1719 95.7051 47.3242 95.3965 47.4414C95.0918 47.5586 94.7305 47.6172 94.3125 47.6172ZM101.736 45.8184C101.736 45.6621 101.701 45.5176 101.631 45.3848C101.564 45.248 101.426 45.125 101.215 45.0156C101.008 44.9023 100.695 44.8047 100.277 44.7227C99.9258 44.6484 99.6074 44.5605 99.3223 44.459C99.041 44.3574 98.8008 44.2344 98.6016 44.0898C98.4062 43.9453 98.2559 43.7754 98.1504 43.5801C98.0449 43.3848 97.9922 43.1562 97.9922 42.8945C97.9922 42.6445 98.0469 42.4082 98.1562 42.1855C98.2695 41.9629 98.4277 41.7656 98.6309 41.5938C98.8379 41.4219 99.0859 41.2871 99.375 41.1895C99.6641 41.0918 99.9863 41.043 100.342 41.043C100.85 41.043 101.283 41.1328 101.643 41.3125C102.002 41.4922 102.277 41.7324 102.469 42.0332C102.66 42.3301 102.756 42.6602 102.756 43.0234H101.672C101.672 42.8477 101.619 42.6777 101.514 42.5137C101.412 42.3457 101.262 42.207 101.062 42.0977C100.867 41.9883 100.627 41.9336 100.342 41.9336C100.041 41.9336 99.7969 41.9805 99.6094 42.0742C99.4258 42.1641 99.291 42.2793 99.2051 42.4199C99.123 42.5605 99.082 42.709 99.082 42.8652C99.082 42.9824 99.1016 43.0879 99.1406 43.1816C99.1836 43.2715 99.2578 43.3555 99.3633 43.4336C99.4688 43.5078 99.6172 43.5781 99.8086 43.6445C100 43.7109 100.244 43.7773 100.541 43.8438C101.061 43.9609 101.488 44.1016 101.824 44.2656C102.16 44.4297 102.41 44.6309 102.574 44.8691C102.738 45.1074 102.82 45.3965 102.82 45.7363C102.82 46.0137 102.762 46.2676 102.645 46.498C102.531 46.7285 102.365 46.9277 102.146 47.0957C101.932 47.2598 101.674 47.3887 101.373 47.4824C101.076 47.5723 100.742 47.6172 100.371 47.6172C99.8125 47.6172 99.3398 47.5176 98.9531 47.3184C98.5664 47.1191 98.2734 46.8613 98.0742 46.5449C97.875 46.2285 97.7754 45.8945 97.7754 45.543H98.8652C98.8809 45.8398 98.9668 46.0762 99.123 46.252C99.2793 46.4238 99.4707 46.5469 99.6973 46.6211C99.9238 46.6914 100.148 46.7266 100.371 46.7266C100.668 46.7266 100.916 46.6875 101.115 46.6094C101.318 46.5312 101.473 46.4238 101.578 46.2871C101.684 46.1504 101.736 45.9941 101.736 45.8184ZM106.934 44.4004V44.2656C106.934 43.8086 107 43.3848 107.133 42.9941C107.266 42.5996 107.457 42.2578 107.707 41.9688C107.957 41.6758 108.26 41.4492 108.615 41.2891C108.971 41.125 109.369 41.043 109.811 41.043C110.256 41.043 110.656 41.125 111.012 41.2891C111.371 41.4492 111.676 41.6758 111.926 41.9688C112.18 42.2578 112.373 42.5996 112.506 42.9941C112.639 43.3848 112.705 43.8086 112.705 44.2656V44.4004C112.705 44.8574 112.639 45.2812 112.506 45.6719C112.373 46.0625 112.18 46.4043 111.926 46.6973C111.676 46.9863 111.373 47.2129 111.018 47.377C110.666 47.5371 110.268 47.6172 109.822 47.6172C109.377 47.6172 108.977 47.5371 108.621 47.377C108.266 47.2129 107.961 46.9863 107.707 46.6973C107.457 46.4043 107.266 46.0625 107.133 45.6719C107 45.2812 106.934 44.8574 106.934 44.4004ZM108.018 44.2656V44.4004C108.018 44.7168 108.055 45.0156 108.129 45.2969C108.203 45.5742 108.314 45.8203 108.463 46.0352C108.615 46.25 108.805 46.4199 109.031 46.5449C109.258 46.666 109.521 46.7266 109.822 46.7266C110.119 46.7266 110.379 46.666 110.602 46.5449C110.828 46.4199 111.016 46.25 111.164 46.0352C111.312 45.8203 111.424 45.5742 111.498 45.2969C111.576 45.0156 111.615 44.7168 111.615 44.4004V44.2656C111.615 43.9531 111.576 43.6582 111.498 43.3809C111.424 43.0996 111.311 42.8516 111.158 42.6367C111.01 42.418 110.822 42.2461 110.596 42.1211C110.373 41.9961 110.111 41.9336 109.811 41.9336C109.514 41.9336 109.252 41.9961 109.025 42.1211C108.803 42.2461 108.615 42.418 108.463 42.6367C108.314 42.8516 108.203 43.0996 108.129 43.3809C108.055 43.6582 108.018 43.9531 108.018 44.2656ZM115.148 42.5137V47.5H114.064V41.1602H115.09L115.148 42.5137ZM114.891 44.0898L114.439 44.0723C114.443 43.6387 114.508 43.2383 114.633 42.8711C114.758 42.5 114.934 42.1777 115.16 41.9043C115.387 41.6309 115.656 41.4199 115.969 41.2715C116.285 41.1191 116.635 41.043 117.018 41.043C117.33 41.043 117.611 41.0859 117.861 41.1719C118.111 41.2539 118.324 41.3867 118.5 41.5703C118.68 41.7539 118.816 41.9922 118.91 42.2852C119.004 42.5742 119.051 42.9277 119.051 43.3457V47.5H117.961V43.334C117.961 43.002 117.912 42.7363 117.814 42.5371C117.717 42.334 117.574 42.1875 117.387 42.0977C117.199 42.0039 116.969 41.957 116.695 41.957C116.426 41.957 116.18 42.0137 115.957 42.127C115.738 42.2402 115.549 42.3965 115.389 42.5957C115.232 42.7949 115.109 43.0234 115.02 43.2812C114.934 43.5352 114.891 43.8047 114.891 44.0898ZM127.119 38.9219V47.5H126.035V40.2754L123.85 41.0723V40.0938L126.949 38.9219H127.119ZM131.385 46.5918H131.496C132.121 46.5918 132.629 46.5039 133.02 46.3281C133.41 46.1523 133.711 45.916 133.922 45.6191C134.133 45.3223 134.277 44.9883 134.355 44.6172C134.434 44.2422 134.473 43.8574 134.473 43.4629V42.1562C134.473 41.7695 134.428 41.4258 134.338 41.125C134.252 40.8242 134.131 40.5723 133.975 40.3691C133.822 40.166 133.648 40.0117 133.453 39.9062C133.258 39.8008 133.051 39.748 132.832 39.748C132.582 39.748 132.357 39.7988 132.158 39.9004C131.963 39.998 131.797 40.1367 131.66 40.3164C131.527 40.4961 131.426 40.707 131.355 40.9492C131.285 41.1914 131.25 41.4551 131.25 41.7402C131.25 41.9941 131.281 42.2402 131.344 42.4785C131.406 42.7168 131.502 42.9316 131.631 43.123C131.76 43.3145 131.92 43.4668 132.111 43.5801C132.307 43.6895 132.535 43.7441 132.797 43.7441C133.039 43.7441 133.266 43.6973 133.477 43.6035C133.691 43.5059 133.881 43.375 134.045 43.2109C134.213 43.043 134.346 42.8535 134.443 42.6426C134.545 42.4316 134.604 42.2109 134.619 41.9805H135.135C135.135 42.3047 135.07 42.625 134.941 42.9414C134.816 43.2539 134.641 43.5391 134.414 43.7969C134.188 44.0547 133.922 44.2617 133.617 44.418C133.312 44.5703 132.98 44.6465 132.621 44.6465C132.199 44.6465 131.834 44.5645 131.525 44.4004C131.217 44.2363 130.963 44.0176 130.764 43.7441C130.568 43.4707 130.422 43.166 130.324 42.8301C130.23 42.4902 130.184 42.1465 130.184 41.7988C130.184 41.3926 130.24 41.0117 130.354 40.6562C130.467 40.3008 130.635 39.9883 130.857 39.7188C131.08 39.4453 131.355 39.2324 131.684 39.0801C132.016 38.9277 132.398 38.8516 132.832 38.8516C133.32 38.8516 133.736 38.9492 134.08 39.1445C134.424 39.3398 134.703 39.6016 134.918 39.9297C135.137 40.2578 135.297 40.627 135.398 41.0371C135.5 41.4473 135.551 41.8691 135.551 42.3027V42.6953C135.551 43.1367 135.521 43.5859 135.463 44.043C135.408 44.4961 135.301 44.9297 135.141 45.3438C134.984 45.7578 134.756 46.1289 134.455 46.457C134.154 46.7812 133.762 47.0391 133.277 47.2305C132.797 47.418 132.203 47.5117 131.496 47.5117H131.385V46.5918ZM139.828 41.1602V41.9922H136.4V41.1602H139.828ZM137.561 39.6191H138.645V45.9297C138.645 46.1445 138.678 46.3066 138.744 46.416C138.811 46.5254 138.896 46.5977 139.002 46.6328C139.107 46.668 139.221 46.6855 139.342 46.6855C139.432 46.6855 139.525 46.6777 139.623 46.6621C139.725 46.6426 139.801 46.627 139.852 46.6152L139.857 47.5C139.771 47.5273 139.658 47.5527 139.518 47.5762C139.381 47.6035 139.215 47.6172 139.02 47.6172C138.754 47.6172 138.51 47.5645 138.287 47.459C138.064 47.3535 137.887 47.1777 137.754 46.9316C137.625 46.6816 137.561 46.3457 137.561 45.9238V39.6191ZM142.184 38.5V47.5H141.1V38.5H142.184ZM141.926 44.0898L141.475 44.0723C141.479 43.6387 141.543 43.2383 141.668 42.8711C141.793 42.5 141.969 42.1777 142.195 41.9043C142.422 41.6309 142.691 41.4199 143.004 41.2715C143.32 41.1191 143.67 41.043 144.053 41.043C144.365 41.043 144.646 41.0859 144.896 41.1719C145.146 41.2539 145.359 41.3867 145.535 41.5703C145.715 41.7539 145.852 41.9922 145.945 42.2852C146.039 42.5742 146.086 42.9277 146.086 43.3457V47.5H144.996V43.334C144.996 43.002 144.947 42.7363 144.85 42.5371C144.752 42.334 144.609 42.1875 144.422 42.0977C144.234 42.0039 144.004 41.957 143.73 41.957C143.461 41.957 143.215 42.0137 142.992 42.127C142.773 42.2402 142.584 42.3965 142.424 42.5957C142.268 42.7949 142.145 43.0234 142.055 43.2812C141.969 43.5352 141.926 43.8047 141.926 44.0898ZM155.396 45.3438C155.396 45.1445 155.365 44.9688 155.303 44.8164C155.244 44.6602 155.139 44.5195 154.986 44.3945C154.838 44.2695 154.631 44.1504 154.365 44.0371C154.104 43.9238 153.771 43.8086 153.369 43.6914C152.947 43.5664 152.566 43.4277 152.227 43.2754C151.887 43.1191 151.596 42.9414 151.354 42.7422C151.111 42.543 150.926 42.3145 150.797 42.0566C150.668 41.7988 150.604 41.5039 150.604 41.1719C150.604 40.8398 150.672 40.5332 150.809 40.252C150.945 39.9707 151.141 39.7266 151.395 39.5195C151.652 39.3086 151.959 39.1445 152.314 39.0273C152.67 38.9102 153.066 38.8516 153.504 38.8516C154.145 38.8516 154.688 38.9746 155.133 39.2207C155.582 39.4629 155.924 39.7812 156.158 40.1758C156.393 40.5664 156.51 40.9844 156.51 41.4297H155.385C155.385 41.1094 155.316 40.8262 155.18 40.5801C155.043 40.3301 154.836 40.1348 154.559 39.9941C154.281 39.8496 153.93 39.7773 153.504 39.7773C153.102 39.7773 152.77 39.8379 152.508 39.959C152.246 40.0801 152.051 40.2441 151.922 40.4512C151.797 40.6582 151.734 40.8945 151.734 41.1602C151.734 41.3398 151.771 41.5039 151.846 41.6523C151.924 41.7969 152.043 41.9316 152.203 42.0566C152.367 42.1816 152.574 42.2969 152.824 42.4023C153.078 42.5078 153.381 42.6094 153.732 42.707C154.217 42.8438 154.635 42.9961 154.986 43.1641C155.338 43.332 155.627 43.5215 155.854 43.7324C156.084 43.9395 156.254 44.1758 156.363 44.4414C156.477 44.7031 156.533 45 156.533 45.332C156.533 45.6797 156.463 45.9941 156.322 46.2754C156.182 46.5566 155.98 46.7969 155.719 46.9961C155.457 47.1953 155.143 47.3496 154.775 47.459C154.412 47.5645 154.006 47.6172 153.557 47.6172C153.162 47.6172 152.773 47.5625 152.391 47.4531C152.012 47.3438 151.666 47.1797 151.354 46.9609C151.045 46.7422 150.797 46.4727 150.609 46.1523C150.426 45.8281 150.334 45.4531 150.334 45.0273H151.459C151.459 45.3203 151.516 45.5723 151.629 45.7832C151.742 45.9902 151.896 46.1621 152.092 46.2988C152.291 46.4355 152.516 46.5371 152.766 46.6035C153.02 46.666 153.283 46.6973 153.557 46.6973C153.951 46.6973 154.285 46.6426 154.559 46.5332C154.832 46.4238 155.039 46.2676 155.18 46.0645C155.324 45.8613 155.396 45.6211 155.396 45.3438ZM160.441 47.6172C160 47.6172 159.6 47.543 159.24 47.3945C158.885 47.2422 158.578 47.0293 158.32 46.7559C158.066 46.4824 157.871 46.1582 157.734 45.7832C157.598 45.4082 157.529 44.998 157.529 44.5527V44.3066C157.529 43.791 157.605 43.332 157.758 42.9297C157.91 42.5234 158.117 42.1797 158.379 41.8984C158.641 41.6172 158.938 41.4043 159.27 41.2598C159.602 41.1152 159.945 41.043 160.301 41.043C160.754 41.043 161.145 41.1211 161.473 41.2773C161.805 41.4336 162.076 41.6523 162.287 41.9336C162.498 42.2109 162.654 42.5391 162.756 42.918C162.857 43.293 162.908 43.7031 162.908 44.1484V44.6348H158.174V43.75H161.824V43.668C161.809 43.3867 161.75 43.1133 161.648 42.8477C161.551 42.582 161.395 42.3633 161.18 42.1914C160.965 42.0195 160.672 41.9336 160.301 41.9336C160.055 41.9336 159.828 41.9863 159.621 42.0918C159.414 42.1934 159.236 42.3457 159.088 42.5488C158.939 42.752 158.824 43 158.742 43.293C158.66 43.5859 158.619 43.9238 158.619 44.3066V44.5527C158.619 44.8535 158.66 45.1367 158.742 45.4023C158.828 45.6641 158.951 45.8945 159.111 46.0938C159.275 46.293 159.473 46.4492 159.703 46.5625C159.938 46.6758 160.203 46.7324 160.5 46.7324C160.883 46.7324 161.207 46.6543 161.473 46.498C161.738 46.3418 161.971 46.1328 162.17 45.8711L162.826 46.3926C162.689 46.5996 162.516 46.7969 162.305 46.9844C162.094 47.1719 161.834 47.3242 161.525 47.4414C161.221 47.5586 160.859 47.6172 160.441 47.6172ZM165.258 42.3789V49.9375H164.168V41.1602H165.164L165.258 42.3789ZM169.529 44.2773V44.4004C169.529 44.8613 169.475 45.2891 169.365 45.6836C169.256 46.0742 169.096 46.4141 168.885 46.7031C168.678 46.9922 168.422 47.2168 168.117 47.377C167.812 47.5371 167.463 47.6172 167.068 47.6172C166.666 47.6172 166.311 47.5508 166.002 47.418C165.693 47.2852 165.432 47.0918 165.217 46.8379C165.002 46.584 164.83 46.2793 164.701 45.9238C164.576 45.5684 164.49 45.168 164.443 44.7227V44.0664C164.49 43.5977 164.578 43.1777 164.707 42.8066C164.836 42.4355 165.006 42.1191 165.217 41.8574C165.432 41.5918 165.691 41.3906 165.996 41.2539C166.301 41.1133 166.652 41.043 167.051 41.043C167.449 41.043 167.803 41.1211 168.111 41.2773C168.42 41.4297 168.68 41.6484 168.891 41.9336C169.102 42.2188 169.26 42.5605 169.365 42.959C169.475 43.3535 169.529 43.793 169.529 44.2773ZM168.439 44.4004V44.2773C168.439 43.9609 168.406 43.6641 168.34 43.3867C168.273 43.1055 168.17 42.8594 168.029 42.6484C167.893 42.4336 167.717 42.2656 167.502 42.1445C167.287 42.0195 167.031 41.957 166.734 41.957C166.461 41.957 166.223 42.0039 166.02 42.0977C165.82 42.1914 165.65 42.3184 165.51 42.4785C165.369 42.6348 165.254 42.8145 165.164 43.0176C165.078 43.2168 165.014 43.4238 164.971 43.6387V45.1562C165.049 45.4297 165.158 45.6875 165.299 45.9297C165.439 46.168 165.627 46.3613 165.861 46.5098C166.096 46.6543 166.391 46.7266 166.746 46.7266C167.039 46.7266 167.291 46.666 167.502 46.5449C167.717 46.4199 167.893 46.25 168.029 46.0352C168.17 45.8203 168.273 45.5742 168.34 45.2969C168.406 45.0156 168.439 44.7168 168.439 44.4004ZM173.566 41.1602V41.9922H170.139V41.1602H173.566ZM171.299 39.6191H172.383V45.9297C172.383 46.1445 172.416 46.3066 172.482 46.416C172.549 46.5254 172.635 46.5977 172.74 46.6328C172.846 46.668 172.959 46.6855 173.08 46.6855C173.17 46.6855 173.264 46.6777 173.361 46.6621C173.463 46.6426 173.539 46.627 173.59 46.6152L173.596 47.5C173.51 47.5273 173.396 47.5527 173.256 47.5762C173.119 47.6035 172.953 47.6172 172.758 47.6172C172.492 47.6172 172.248 47.5645 172.025 47.459C171.803 47.3535 171.625 47.1777 171.492 46.9316C171.363 46.6816 171.299 46.3457 171.299 45.9238V39.6191ZM177.469 47.6172C177.027 47.6172 176.627 47.543 176.268 47.3945C175.912 47.2422 175.605 47.0293 175.348 46.7559C175.094 46.4824 174.898 46.1582 174.762 45.7832C174.625 45.4082 174.557 44.998 174.557 44.5527V44.3066C174.557 43.791 174.633 43.332 174.785 42.9297C174.938 42.5234 175.145 42.1797 175.406 41.8984C175.668 41.6172 175.965 41.4043 176.297 41.2598C176.629 41.1152 176.973 41.043 177.328 41.043C177.781 41.043 178.172 41.1211 178.5 41.2773C178.832 41.4336 179.104 41.6523 179.314 41.9336C179.525 42.2109 179.682 42.5391 179.783 42.918C179.885 43.293 179.936 43.7031 179.936 44.1484V44.6348H175.201V43.75H178.852V43.668C178.836 43.3867 178.777 43.1133 178.676 42.8477C178.578 42.582 178.422 42.3633 178.207 42.1914C177.992 42.0195 177.699 41.9336 177.328 41.9336C177.082 41.9336 176.855 41.9863 176.648 42.0918C176.441 42.1934 176.264 42.3457 176.115 42.5488C175.967 42.752 175.852 43 175.77 43.293C175.688 43.5859 175.646 43.9238 175.646 44.3066V44.5527C175.646 44.8535 175.688 45.1367 175.77 45.4023C175.855 45.6641 175.979 45.8945 176.139 46.0938C176.303 46.293 176.5 46.4492 176.73 46.5625C176.965 46.6758 177.23 46.7324 177.527 46.7324C177.91 46.7324 178.234 46.6543 178.5 46.498C178.766 46.3418 178.998 46.1328 179.197 45.8711L179.854 46.3926C179.717 46.5996 179.543 46.7969 179.332 46.9844C179.121 47.1719 178.861 47.3242 178.553 47.4414C178.248 47.5586 177.887 47.6172 177.469 47.6172ZM182.279 42.4199V47.5H181.189V41.1602H182.221L182.279 42.4199ZM182.057 44.0898L181.553 44.0723C181.557 43.6387 181.613 43.2383 181.723 42.8711C181.832 42.5 181.994 42.1777 182.209 41.9043C182.424 41.6309 182.691 41.4199 183.012 41.2715C183.332 41.1191 183.703 41.043 184.125 41.043C184.422 41.043 184.695 41.0859 184.945 41.1719C185.195 41.2539 185.412 41.3848 185.596 41.5645C185.779 41.7441 185.922 41.9746 186.023 42.2559C186.125 42.5371 186.176 42.877 186.176 43.2754V47.5H185.092V43.3281C185.092 42.9961 185.035 42.7305 184.922 42.5312C184.812 42.332 184.656 42.1875 184.453 42.0977C184.25 42.0039 184.012 41.957 183.738 41.957C183.418 41.957 183.15 42.0137 182.936 42.127C182.721 42.2402 182.549 42.3965 182.42 42.5957C182.291 42.7949 182.197 43.0234 182.139 43.2812C182.084 43.5352 182.057 43.8047 182.057 44.0898ZM186.164 43.4922L185.438 43.7148C185.441 43.3672 185.498 43.0332 185.607 42.7129C185.721 42.3926 185.883 42.1074 186.094 41.8574C186.309 41.6074 186.572 41.4102 186.885 41.2656C187.197 41.1172 187.555 41.043 187.957 41.043C188.297 41.043 188.598 41.0879 188.859 41.1777C189.125 41.2676 189.348 41.4062 189.527 41.5938C189.711 41.7773 189.85 42.0137 189.943 42.3027C190.037 42.5918 190.084 42.9355 190.084 43.334V47.5H188.994V43.3223C188.994 42.9668 188.938 42.6914 188.824 42.4961C188.715 42.2969 188.559 42.1582 188.355 42.0801C188.156 41.998 187.918 41.957 187.641 41.957C187.402 41.957 187.191 41.998 187.008 42.0801C186.824 42.1621 186.67 42.2754 186.545 42.4199C186.42 42.5605 186.324 42.7227 186.258 42.9062C186.195 43.0898 186.164 43.2852 186.164 43.4922ZM191.719 38.5H192.809V46.2695L192.715 47.5H191.719V38.5ZM197.092 44.2773V44.4004C197.092 44.8613 197.037 45.2891 196.928 45.6836C196.818 46.0742 196.658 46.4141 196.447 46.7031C196.236 46.9922 195.979 47.2168 195.674 47.377C195.369 47.5371 195.02 47.6172 194.625 47.6172C194.223 47.6172 193.869 47.5488 193.564 47.4121C193.264 47.2715 193.01 47.0703 192.803 46.8086C192.596 46.5469 192.43 46.2305 192.305 45.8594C192.184 45.4883 192.1 45.0703 192.053 44.6055V44.0664C192.1 43.5977 192.184 43.1777 192.305 42.8066C192.43 42.4355 192.596 42.1191 192.803 41.8574C193.01 41.5918 193.264 41.3906 193.564 41.2539C193.865 41.1133 194.215 41.043 194.613 41.043C195.012 41.043 195.365 41.1211 195.674 41.2773C195.982 41.4297 196.24 41.6484 196.447 41.9336C196.658 42.2188 196.818 42.5605 196.928 42.959C197.037 43.3535 197.092 43.793 197.092 44.2773ZM196.002 44.4004V44.2773C196.002 43.9609 195.973 43.6641 195.914 43.3867C195.855 43.1055 195.762 42.8594 195.633 42.6484C195.504 42.4336 195.334 42.2656 195.123 42.1445C194.912 42.0195 194.652 41.957 194.344 41.957C194.07 41.957 193.832 42.0039 193.629 42.0977C193.43 42.1914 193.26 42.3184 193.119 42.4785C192.979 42.6348 192.863 42.8145 192.773 43.0176C192.688 43.2168 192.623 43.4238 192.58 43.6387V45.0508C192.643 45.3242 192.744 45.5879 192.885 45.8418C193.029 46.0918 193.221 46.2969 193.459 46.457C193.701 46.6172 194 46.6973 194.355 46.6973C194.648 46.6973 194.898 46.6387 195.105 46.5215C195.316 46.4004 195.486 46.2344 195.615 46.0234C195.748 45.8125 195.846 45.5684 195.908 45.291C195.971 45.0137 196.002 44.7168 196.002 44.4004ZM201.094 47.6172C200.652 47.6172 200.252 47.543 199.893 47.3945C199.537 47.2422 199.23 47.0293 198.973 46.7559C198.719 46.4824 198.523 46.1582 198.387 45.7832C198.25 45.4082 198.182 44.998 198.182 44.5527V44.3066C198.182 43.791 198.258 43.332 198.41 42.9297C198.562 42.5234 198.77 42.1797 199.031 41.8984C199.293 41.6172 199.59 41.4043 199.922 41.2598C200.254 41.1152 200.598 41.043 200.953 41.043C201.406 41.043 201.797 41.1211 202.125 41.2773C202.457 41.4336 202.729 41.6523 202.939 41.9336C203.15 42.2109 203.307 42.5391 203.408 42.918C203.51 43.293 203.561 43.7031 203.561 44.1484V44.6348H198.826V43.75H202.477V43.668C202.461 43.3867 202.402 43.1133 202.301 42.8477C202.203 42.582 202.047 42.3633 201.832 42.1914C201.617 42.0195 201.324 41.9336 200.953 41.9336C200.707 41.9336 200.48 41.9863 200.273 42.0918C200.066 42.1934 199.889 42.3457 199.74 42.5488C199.592 42.752 199.477 43 199.395 43.293C199.312 43.5859 199.271 43.9238 199.271 44.3066V44.5527C199.271 44.8535 199.312 45.1367 199.395 45.4023C199.48 45.6641 199.604 45.8945 199.764 46.0938C199.928 46.293 200.125 46.4492 200.355 46.5625C200.59 46.6758 200.855 46.7324 201.152 46.7324C201.535 46.7324 201.859 46.6543 202.125 46.498C202.391 46.3418 202.623 46.1328 202.822 45.8711L203.479 46.3926C203.342 46.5996 203.168 46.7969 202.957 46.9844C202.746 47.1719 202.486 47.3242 202.178 47.4414C201.873 47.5586 201.512 47.6172 201.094 47.6172ZM205.91 42.1562V47.5H204.826V41.1602H205.881L205.91 42.1562ZM207.891 41.125L207.885 42.1328C207.795 42.1133 207.709 42.1016 207.627 42.0977C207.549 42.0898 207.459 42.0859 207.357 42.0859C207.107 42.0859 206.887 42.125 206.695 42.2031C206.504 42.2812 206.342 42.3906 206.209 42.5312C206.076 42.6719 205.971 42.8398 205.893 43.0352C205.818 43.2266 205.77 43.4375 205.746 43.668L205.441 43.8438C205.441 43.4609 205.479 43.1016 205.553 42.7656C205.631 42.4297 205.75 42.1328 205.91 41.875C206.07 41.6133 206.273 41.4102 206.52 41.2656C206.77 41.1172 207.066 41.043 207.41 41.043C207.488 41.043 207.578 41.0527 207.68 41.0723C207.781 41.0879 207.852 41.1055 207.891 41.125ZM209.15 46.2109V47.084C209.15 47.4395 209.061 47.8145 208.881 48.209C208.701 48.6074 208.449 48.9395 208.125 49.2051L207.51 48.7773C207.635 48.6055 207.74 48.4297 207.826 48.25C207.912 48.0742 207.977 47.8906 208.02 47.6992C208.066 47.5117 208.09 47.3125 208.09 47.1016V46.2109H209.15ZM218.982 46.6094V47.5H213.398V46.7207L216.193 43.6094C216.537 43.2266 216.803 42.9023 216.99 42.6367C217.182 42.3672 217.314 42.127 217.389 41.916C217.467 41.7012 217.506 41.4824 217.506 41.2598C217.506 40.9785 217.447 40.7246 217.33 40.498C217.217 40.2676 217.049 40.084 216.826 39.9473C216.604 39.8105 216.334 39.7422 216.018 39.7422C215.639 39.7422 215.322 39.8164 215.068 39.9648C214.818 40.1094 214.631 40.3125 214.506 40.5742C214.381 40.8359 214.318 41.1367 214.318 41.4766H213.234C213.234 40.9961 213.34 40.5566 213.551 40.1582C213.762 39.7598 214.074 39.4434 214.488 39.209C214.902 38.9707 215.412 38.8516 216.018 38.8516C216.557 38.8516 217.018 38.9473 217.4 39.1387C217.783 39.3262 218.076 39.5918 218.279 39.9355C218.486 40.2754 218.59 40.6738 218.59 41.1309C218.59 41.3809 218.547 41.6348 218.461 41.8926C218.379 42.1465 218.264 42.4004 218.115 42.6543C217.971 42.9082 217.801 43.1582 217.605 43.4043C217.414 43.6504 217.209 43.8926 216.99 44.1309L214.705 46.6094H218.982ZM225.498 42.5547V43.8555C225.498 44.5547 225.436 45.1445 225.311 45.625C225.186 46.1055 225.006 46.4922 224.771 46.7852C224.537 47.0781 224.254 47.291 223.922 47.4238C223.594 47.5527 223.223 47.6172 222.809 47.6172C222.48 47.6172 222.178 47.5762 221.9 47.4941C221.623 47.4121 221.373 47.2812 221.15 47.1016C220.932 46.918 220.744 46.6797 220.588 46.3867C220.432 46.0938 220.312 45.7383 220.23 45.3203C220.148 44.9023 220.107 44.4141 220.107 43.8555V42.5547C220.107 41.8555 220.17 41.2695 220.295 40.7969C220.424 40.3242 220.605 39.9453 220.84 39.6602C221.074 39.3711 221.355 39.1641 221.684 39.0391C222.016 38.9141 222.387 38.8516 222.797 38.8516C223.129 38.8516 223.434 38.8926 223.711 38.9746C223.992 39.0527 224.242 39.1797 224.461 39.3555C224.68 39.5273 224.865 39.7578 225.018 40.0469C225.174 40.332 225.293 40.6816 225.375 41.0957C225.457 41.5098 225.498 41.9961 225.498 42.5547ZM224.408 44.0312V42.373C224.408 41.9902 224.385 41.6543 224.338 41.3652C224.295 41.0723 224.23 40.8223 224.145 40.6152C224.059 40.4082 223.949 40.2402 223.816 40.1113C223.688 39.9824 223.537 39.8887 223.365 39.8301C223.197 39.7676 223.008 39.7363 222.797 39.7363C222.539 39.7363 222.311 39.7852 222.111 39.8828C221.912 39.9766 221.744 40.127 221.607 40.334C221.475 40.541 221.373 40.8125 221.303 41.1484C221.232 41.4844 221.197 41.8926 221.197 42.373V44.0312C221.197 44.4141 221.219 44.752 221.262 45.0449C221.309 45.3379 221.377 45.5918 221.467 45.8066C221.557 46.0176 221.666 46.1914 221.795 46.3281C221.924 46.4648 222.072 46.5664 222.24 46.6328C222.412 46.6953 222.602 46.7266 222.809 46.7266C223.074 46.7266 223.307 46.6758 223.506 46.5742C223.705 46.4727 223.871 46.3145 224.004 46.0996C224.141 45.8809 224.242 45.6016 224.309 45.2617C224.375 44.918 224.408 44.5078 224.408 44.0312ZM230.455 38.9219V47.5H229.371V40.2754L227.186 41.0723V40.0938L230.285 38.9219H230.455ZM234.721 46.5918H234.832C235.457 46.5918 235.965 46.5039 236.355 46.3281C236.746 46.1523 237.047 45.916 237.258 45.6191C237.469 45.3223 237.613 44.9883 237.691 44.6172C237.77 44.2422 237.809 43.8574 237.809 43.4629V42.1562C237.809 41.7695 237.764 41.4258 237.674 41.125C237.588 40.8242 237.467 40.5723 237.311 40.3691C237.158 40.166 236.984 40.0117 236.789 39.9062C236.594 39.8008 236.387 39.748 236.168 39.748C235.918 39.748 235.693 39.7988 235.494 39.9004C235.299 39.998 235.133 40.1367 234.996 40.3164C234.863 40.4961 234.762 40.707 234.691 40.9492C234.621 41.1914 234.586 41.4551 234.586 41.7402C234.586 41.9941 234.617 42.2402 234.68 42.4785C234.742 42.7168 234.838 42.9316 234.967 43.123C235.096 43.3145 235.256 43.4668 235.447 43.5801C235.643 43.6895 235.871 43.7441 236.133 43.7441C236.375 43.7441 236.602 43.6973 236.812 43.6035C237.027 43.5059 237.217 43.375 237.381 43.2109C237.549 43.043 237.682 42.8535 237.779 42.6426C237.881 42.4316 237.939 42.2109 237.955 41.9805H238.471C238.471 42.3047 238.406 42.625 238.277 42.9414C238.152 43.2539 237.977 43.5391 237.75 43.7969C237.523 44.0547 237.258 44.2617 236.953 44.418C236.648 44.5703 236.316 44.6465 235.957 44.6465C235.535 44.6465 235.17 44.5645 234.861 44.4004C234.553 44.2363 234.299 44.0176 234.1 43.7441C233.904 43.4707 233.758 43.166 233.66 42.8301C233.566 42.4902 233.52 42.1465 233.52 41.7988C233.52 41.3926 233.576 41.0117 233.689 40.6562C233.803 40.3008 233.971 39.9883 234.193 39.7188C234.416 39.4453 234.691 39.2324 235.02 39.0801C235.352 38.9277 235.734 38.8516 236.168 38.8516C236.656 38.8516 237.072 38.9492 237.416 39.1445C237.76 39.3398 238.039 39.6016 238.254 39.9297C238.473 40.2578 238.633 40.627 238.734 41.0371C238.836 41.4473 238.887 41.8691 238.887 42.3027V42.6953C238.887 43.1367 238.857 43.5859 238.799 44.043C238.744 44.4961 238.637 44.9297 238.477 45.3438C238.32 45.7578 238.092 46.1289 237.791 46.457C237.49 46.7812 237.098 47.0391 236.613 47.2305C236.133 47.418 235.539 47.5117 234.832 47.5117H234.721V46.5918Z" fill="white"/>
</svg>
